<?xml version="1.0" standalone="no"?>
<!DOCTYPE svg PUBLIC "-//W3C//DTD SVG 20010904//EN"
 "http://www.w3.org/TR/2001/REC-SVG-20010904/DTD/svg10.dtd">
<svg version="1.0" xmlns="http://www.w3.org/2000/svg"
 width="400.000000pt" height="400.000000pt" viewBox="0 0 400.000000 400.000000"
 preserveAspectRatio="xMidYMid meet">
<metadata>
Created by potrace 1.14, written by Peter Selinger 2001-2017
</metadata>
<g transform="translate(0.000000,400.000000) scale(0.100000,-0.100000)"
fill="#000000" stroke="none">
<path d="M1907 3916 c-43 -44 -412 -418 -820 -830 -408 -411 -819 -827 -913
-922 l-172 -174 292 -289 c285 -284 761 -754 849 -839 l44 -43 104 104 c57 58
437 441 844 852 407 411 807 814 889 896 134 134 147 151 135 166 -8 10 -97
100 -199 200 l-184 183 -25 -23 c-13 -12 -37 -35 -54 -52 -16 -16 -358 -362
-760 -768 l-731 -738 -193 193 c-106 106 -193 195 -193 198 0 5 361 371 1134
1151 l428 432 -196 194 c-108 106 -198 192 -199 192 -1 -1 -37 -38 -80 -83z"/>
<path d="M2977 1838 l-586 -592 216 -213 215 -213 215 218 c118 119 383 386
588 593 l375 377 -211 208 c-115 115 -213 210 -218 212 -4 1 -272 -264 -594
-590z"/>
<path d="M1982 1014 c-12 -8 -20 -20 -16 -25 3 -5 1 -8 -4 -7 -5 2 -64 -53
-131 -120 -107 -108 -120 -126 -109 -140 11 -15 11 -15 -3 -5 -12 10 -19 10
-34 -1 -17 -12 -18 -16 -5 -32 13 -17 13 -18 -1 -7 -13 10 -20 9 -38 -8 -12
-11 -19 -24 -16 -28 2 -5 -3 -8 -12 -7 -33 2 -25 -33 17 -74 l42 -41 -46 -47
-46 -47 210 -207 c115 -115 214 -208 219 -208 11 0 413 404 413 415 1 4 -18
27 -41 51 l-42 44 46 44 c50 50 55 60 23 51 -16 -4 -19 -4 -9 3 10 7 -10 33
-89 110 -57 56 -107 99 -112 96 -5 -3 -8 -2 -7 3 4 21 -3 32 -21 38 -11 3 -20
10 -20 14 0 8 -32 42 -112 118 -32 31 -35 32 -56 17z"/>
</g>
</svg>
